<svg width="40" height="26" viewBox="0 0 40 26" fill="none" xmlns="http://www.w3.org/2000/svg">
<path d="M34.9932 0.768509C34.3355 0.767845 33.6842 0.89415 33.0766 1.14017C32.469 1.38619 31.9171 1.74708 31.4527 2.2021L19.9698 13.4213L8.48682 2.2021C7.54233 1.31084 6.27735 0.81767 4.96431 0.828818C3.65128 0.839966 2.39525 1.35454 1.46676 2.2617C0.538265 3.16887 0.0115987 4.39605 0.000188803 5.67893C-0.0112211 6.96181 0.493539 8.19774 1.40576 9.12053L16.4292 23.799C17.3683 24.7162 18.6419 25.2315 19.9698 25.2315C21.2977 25.2315 22.5712 24.7162 23.5103 23.799L38.5338 9.12053C39.2339 8.43626 39.7107 7.56454 39.9038 6.61557C40.097 5.66659 39.9978 4.68298 39.6189 3.78906C39.2399 2.89515 38.5982 2.13107 37.7749 1.59343C36.9515 1.05578 35.9835 0.768716 34.9932 0.768509Z" fill="#7B7B7B"/>
</svg>
