<svg width="16" height="16" viewBox="0 0 16 16" fill="none" xmlns="http://www.w3.org/2000/svg">
<path d="M16 8C16 3.58187 12.4184 0.000266667 8.00027 0C3.58213 0 0 3.58187 0 8C0 12.4181 3.58187 16 8 16C12.4181 15.9997 16 12.4181 16 8ZM8 15.4667C7.93573 15.4667 7.87227 15.4635 7.808 15.4616C7.60853 14.3043 7.46693 11.4008 7.46693 8C7.46693 4.5992 7.60853 1.69573 7.808 0.5384C7.87227 0.536533 7.93573 0.533333 8 0.533333C12.124 0.533333 15.4667 3.87627 15.4667 8C15.4667 12.1237 12.124 15.4667 8 15.4667Z" fill="white"/>
</svg>
