<svg width="16" height="16" viewBox="0 0 16 16" fill="none" xmlns="http://www.w3.org/2000/svg">
<circle cx="8" cy="8" r="7.75" stroke="white" stroke-width="0.5"/>
<g clip-path="url(#clip0_1307_4410)">
<path d="M8 4.625C7.74041 4.625 7.48665 4.54802 7.27081 4.4038C7.05498 4.25959 6.88675 4.0546 6.78741 3.81477C6.68807 3.57494 6.66208 3.31104 6.71272 3.05644C6.76336 2.80184 6.88837 2.56798 7.07192 2.38442C7.25548 2.20087 7.48934 2.07586 7.74394 2.02522C7.99854 1.97458 8.26244 2.00057 8.50227 2.09991C8.7421 2.19925 8.94708 2.36748 9.0913 2.58331C9.23552 2.79915 9.3125 3.05291 9.3125 3.3125C9.31213 3.66048 9.17373 3.99411 8.92767 4.24017C8.68161 4.48623 8.34798 4.62463 8 4.625Z" fill="white"/>
<path d="M12.1248 4.64375L12.1142 4.64656L12.1044 4.64961C12.0809 4.65617 12.0575 4.6632 12.0341 4.67047C11.5979 4.79843 9.48102 5.39515 7.98969 5.39515C6.60383 5.39515 4.67844 4.87953 4.0625 4.70445C4.0012 4.68075 3.9386 4.66056 3.875 4.64398C3.42969 4.52679 3.125 4.97914 3.125 5.39258C3.125 5.80203 3.49297 5.99703 3.86445 6.13695V6.14351L6.09617 6.84054C6.32422 6.92797 6.38516 7.01726 6.41492 7.09461C6.51172 7.34281 6.43438 7.83429 6.40695 8.00586L6.27102 9.06054L5.51656 13.19C5.51422 13.2012 5.51211 13.2127 5.51023 13.2245L5.50484 13.2542C5.45047 13.6327 5.72844 14 6.25484 14C6.71422 14 6.91695 13.6829 7.00484 13.2514C7.09273 12.8199 7.66109 9.55836 7.98922 9.55836C8.31734 9.55836 8.99328 13.2514 8.99328 13.2514C9.08117 13.6829 9.28391 14 9.74328 14C10.2711 14 10.5491 13.6311 10.4933 13.2514C10.4885 13.2195 10.4826 13.1877 10.4755 13.1562L9.7107 9.06101L9.575 8.00633C9.4768 7.39203 9.55578 7.18906 9.5825 7.14148C9.58322 7.14036 9.58384 7.13919 9.58437 7.13797C9.60969 7.09109 9.725 6.98609 9.99406 6.88508L12.0866 6.15359C12.0994 6.15017 12.1121 6.1461 12.1245 6.1414C12.4995 6.00078 12.8745 5.80625 12.8745 5.39304C12.8745 4.97984 12.5701 4.52679 12.1248 4.64375Z" fill="white"/>
</g>
<defs>
<clipPath id="clip0_1307_4410">
<rect width="12" height="12" fill="white" transform="translate(2 2)"/>
</clipPath>
</defs>
</svg>
