<svg width="7" height="11" viewBox="0 0 7 11" fill="none" xmlns="http://www.w3.org/2000/svg">
<path d="M9.93205e-07 1.37686C-0.000189266 1.55773 0.0359526 1.73685 0.10635 1.90394C0.176749 2.07103 0.280016 2.22279 0.410218 2.3505L3.62055 5.50831L0.410218 8.66612C0.155186 8.92586 0.0140681 9.27373 0.0172582 9.63481C0.0204482 9.9959 0.167691 10.3413 0.427273 10.5966C0.686855 10.852 1.03801 10.9968 1.4051 10.9999C1.77219 11.0031 2.12585 10.8643 2.3899 10.6134L6.59008 6.48196C6.85255 6.22371 7 5.87349 7 5.50832C7 5.14315 6.85255 4.79292 6.59008 4.53467L2.3899 0.403213C2.1941 0.210674 1.94466 0.0795617 1.67312 0.0264486C1.40157 -0.0266654 1.12011 0.000604756 0.864322 0.104814C0.608531 0.209022 0.389893 0.385492 0.236048 0.61191C0.0822034 0.838327 6.01221e-05 1.10453 9.93205e-07 1.37686Z" fill="#D9D9D9"/>
</svg>
