<svg width="40" height="40" viewBox="0 0 40 40" fill="none" xmlns="http://www.w3.org/2000/svg">
<path d="M18.399 27.1799L15.6212 24.5095C15.3597 24.2581 15.229 23.9545 15.229 23.5984C15.229 23.2424 15.3597 22.9387 15.6212 22.6873C15.8826 22.436 16.1985 22.3103 16.5689 22.3103C16.9393 22.3103 17.2552 22.436 17.5166 22.6873L19.314 24.4152L23.8566 20.0484C24.1181 19.797 24.434 19.6714 24.8044 19.6714C25.1747 19.6714 25.4907 19.797 25.7521 20.0484C26.0135 20.2997 26.1443 20.6034 26.1443 20.9594C26.1443 21.3155 26.0135 21.6192 25.7521 21.8705L20.2291 27.1799C19.9677 27.4312 19.6626 27.5568 19.314 27.5568C18.9655 27.5568 18.6604 27.4312 18.399 27.1799ZM11.5361 32.6463C10.8171 32.6463 10.2014 32.4004 9.689 31.9086C9.17744 31.416 8.92166 30.8241 8.92166 30.133V12.5399C8.92166 11.8487 9.17744 11.2573 9.689 10.7655C10.2014 10.2729 10.8171 10.0266 11.5361 10.0266H12.8433V8.76995C12.8433 8.4139 12.9684 8.11523 13.2185 7.87396C13.4695 7.63352 13.7802 7.5133 14.1505 7.5133C14.5209 7.5133 14.8316 7.63352 15.0826 7.87396C15.3327 8.11523 15.4578 8.4139 15.4578 8.76995V10.0266H25.9155V8.76995C25.9155 8.4139 26.041 8.11523 26.292 7.87396C26.5421 7.63352 26.8523 7.5133 27.2227 7.5133C27.5931 7.5133 27.9033 7.63352 28.1535 7.87396C28.4044 8.11523 28.5299 8.4139 28.5299 8.76995V10.0266H29.8372C30.5561 10.0266 31.1718 10.2729 31.6843 10.7655C32.1958 11.2573 32.4516 11.8487 32.4516 12.5399V30.133C32.4516 30.8241 32.1958 31.416 31.6843 31.9086C31.1718 32.4004 30.5561 32.6463 29.8372 32.6463H11.5361ZM10.2289 31.1383H31.1444V16.5612H10.2289V31.1383ZM10.2289 15.0532H31.1444V11.5346H10.2289V15.0532Z" fill="#333333"/>
</svg>
