<svg xmlns="http://www.w3.org/2000/svg" width="38" height="38" viewBox="2 2 38 38" fill="none" aria-label="Portal SP 156" class="social">
<path d="M32.5582 36.3234L36.9223 31.9553C37.2318 31.6471 37.4773 31.2809 37.6448 30.8776C37.8124 30.4743 37.8985 30.0418 37.8984 29.6051C37.8984 28.715 37.5498 27.8783 36.9223 27.2508L32.2219 22.5504C31.9137 22.2409 31.5475 21.9953 31.1442 21.8278C30.7409 21.6603 30.3084 21.5741 29.8717 21.5742C28.9816 21.5742 28.1449 21.9229 27.5174 22.5504L24.0803 25.9875C22.3069 25.183 20.6937 24.0644 19.3184 22.6857C17.9364 21.3106 16.8137 19.6975 16.0043 17.9238L19.4414 14.4867C19.7509 14.1786 19.9965 13.8123 20.164 13.409C20.3315 13.0057 20.4177 12.5733 20.4176 12.1365C20.4176 11.2465 20.0689 10.4098 19.4414 9.78223L14.7451 5.07774C14.4364 4.76787 14.0695 4.5221 13.6654 4.35457C13.2614 4.18704 12.8282 4.10105 12.3908 4.10156C11.5008 4.10156 10.6641 4.4502 10.0365 5.07774L5.67656 9.4377C4.67168 10.4385 4.10156 11.8207 4.10156 13.2398C4.10156 13.5393 4.12617 13.8264 4.17539 14.1094C5.08594 19.6383 8.02676 25.1221 12.4482 29.5477C16.8656 33.9691 22.3453 36.9059 27.8906 37.8287C29.5846 38.1076 31.3277 37.5457 32.5582 36.3234Z"/>
</svg>