<svg xmlns="http://www.w3.org/2000/svg" width="28" height="28" viewBox="1 1 29 28" fill="none">
<path fill-rule="evenodd" clip-rule="evenodd" d="M9.64237 1.3325C11.1575 1.265 11.6406 1.25 15.5001 1.25C19.3596 1.25 19.8427 1.26625 21.3565 1.3325C22.8703 1.39875 23.9037 1.6325 24.8078 1.97125C25.7546 2.3175 26.6136 2.85875 27.324 3.55875C28.0473 4.245 28.6053 5.075 28.9618 5.9925C29.3132 6.8675 29.5534 7.8675 29.6232 9.33C29.6929 10.7988 29.7084 11.2663 29.7084 15C29.7084 18.735 29.6916 19.2025 29.6232 20.6688C29.5547 22.1313 29.3132 23.1313 28.9618 24.0063C28.6053 24.9239 28.0464 25.7553 27.324 26.4425C26.6136 27.1425 25.7546 27.6825 24.8078 28.0275C23.9037 28.3675 22.8703 28.6 21.3591 28.6675C19.8427 28.735 19.3596 28.75 15.5001 28.75C11.6406 28.75 11.1575 28.7338 9.64237 28.6675C8.13112 28.6013 7.09779 28.3675 6.19362 28.0275C5.24544 27.6825 4.38635 27.1416 3.67616 26.4425C2.95332 25.7558 2.39395 24.9249 2.03704 24.0075C1.687 23.1325 1.44675 22.1325 1.377 20.67C1.30725 19.2013 1.29175 18.7338 1.29175 15C1.29175 11.265 1.30854 10.7975 1.377 9.3325C1.44546 7.8675 1.687 6.8675 2.03704 5.9925C2.39447 5.0751 2.95428 4.24414 3.67746 3.5575C4.38663 2.85813 5.24486 2.3168 6.19233 1.97125C7.0965 1.6325 8.12983 1.4 9.64108 1.3325H9.64237ZM21.2415 3.8075C19.7432 3.74125 19.2937 3.7275 15.5001 3.7275C11.7065 3.7275 11.257 3.74125 9.75862 3.8075C8.37266 3.86875 7.62092 4.0925 7.11975 4.28125C6.45712 4.53125 5.98308 4.8275 5.48579 5.30875C5.01439 5.75256 4.65161 6.29285 4.42404 6.89C4.229 7.375 3.99779 8.1025 3.9345 9.44375C3.86604 10.8938 3.85183 11.3288 3.85183 15C3.85183 18.6713 3.86604 19.1063 3.9345 20.5563C3.99779 21.8975 4.229 22.625 4.42404 23.11C4.65137 23.7063 5.01433 24.2475 5.48579 24.6913C5.94433 25.1475 6.50362 25.4988 7.11975 25.7188C7.62092 25.9075 8.37266 26.1313 9.75862 26.1925C11.257 26.2588 11.7052 26.2725 15.5001 26.2725C19.295 26.2725 19.7432 26.2588 21.2415 26.1925C22.6275 26.1313 23.3792 25.9075 23.8804 25.7188C24.543 25.4688 25.0171 25.1725 25.5144 24.6913C25.9858 24.2475 26.3488 23.7063 26.5761 23.11C26.7712 22.625 27.0024 21.8975 27.0657 20.5563C27.1341 19.1063 27.1483 18.6713 27.1483 15C27.1483 11.3288 27.1341 10.8938 27.0657 9.44375C27.0024 8.1025 26.7712 7.375 26.5761 6.89C26.3178 6.24875 26.0117 5.79 25.5144 5.30875C25.0557 4.85259 24.4974 4.50151 23.8804 4.28125C23.3792 4.0925 22.6275 3.86875 21.2415 3.8075ZM13.6853 19.2388C14.6988 19.647 15.8274 19.7021 16.8782 19.3947C17.929 19.0872 18.837 18.4361 19.4469 17.5528C20.0569 16.6695 20.331 15.6086 20.2225 14.5514C20.114 13.4942 19.6295 12.5062 18.852 11.7563C18.3563 11.2768 17.7569 10.9098 17.097 10.6814C16.4371 10.4531 15.7331 10.3692 15.0357 10.4358C14.3383 10.5023 13.6648 10.7177 13.0637 11.0664C12.4627 11.4151 11.949 11.8884 11.5596 12.4523C11.1702 13.0162 10.9149 13.6566 10.812 14.3275C10.7091 14.9983 10.7612 15.6829 10.9644 16.3319C11.1677 16.9809 11.5172 17.5783 11.9877 18.0809C12.4582 18.5835 13.0379 18.979 13.6853 19.2388ZM10.336 10.0025C11.0142 9.34622 11.8192 8.82563 12.7053 8.47045C13.5914 8.11528 14.541 7.93247 15.5001 7.93247C16.4591 7.93247 17.4088 8.11528 18.2949 8.47045C19.1809 8.82563 19.986 9.34622 20.6642 10.0025C21.3423 10.6588 21.8803 11.4379 22.2473 12.2954C22.6143 13.1528 22.8032 14.0719 22.8032 15C22.8032 15.9281 22.6143 16.8472 22.2473 17.7046C21.8803 18.5621 21.3423 19.3412 20.6642 19.9975C19.2946 21.3229 17.437 22.0675 15.5001 22.0675C13.5632 22.0675 11.7056 21.3229 10.336 19.9975C8.9664 18.6721 8.19697 16.8744 8.19697 15C8.19697 13.1256 8.9664 11.3279 10.336 10.0025ZM24.4229 8.985C24.591 8.83159 24.7255 8.6471 24.8186 8.44247C24.9116 8.23783 24.9613 8.01721 24.9647 7.79366C24.968 7.57011 24.925 7.34819 24.8382 7.14101C24.7513 6.93384 24.6224 6.74564 24.459 6.58755C24.2957 6.42946 24.1012 6.3047 23.8871 6.22065C23.673 6.1366 23.4437 6.09497 23.2127 6.09823C22.9817 6.10149 22.7537 6.14957 22.5423 6.23962C22.3308 6.32967 22.1402 6.45987 21.9817 6.6225C21.6734 6.93879 21.5046 7.3589 21.5111 7.79366C21.5177 8.22842 21.699 8.6436 22.0167 8.95105C22.3344 9.25851 22.7635 9.43404 23.2127 9.44037C23.662 9.44671 24.0961 9.28336 24.4229 8.985Z"/>
</svg>