<svg width="28" height="28" viewBox="0 0 28 28" fill="none" xmlns="http://www.w3.org/2000/svg">
<g clip-path="url(#clip0_3_216)">
<path d="M22.75 0C24.1962 0 25.4327 0.513455 26.4596 1.54036C27.4865 2.56727 28 3.80382 28 5.25V22.75C28 24.1962 27.4865 25.4327 26.4596 26.4596C25.4327 27.4865 24.1962 28 22.75 28H19.3229V17.1536H22.9505L23.4974 12.9245H19.3229V10.2266C19.3229 9.54601 19.4657 9.03559 19.7513 8.69531C20.0369 8.35503 20.5929 8.1849 21.4193 8.1849L23.6432 8.16667V4.39323C22.8776 4.28385 21.796 4.22917 20.3984 4.22917C18.7457 4.22917 17.424 4.71528 16.4336 5.6875C15.4431 6.65972 14.9479 8.03299 14.9479 9.80729V12.9245H11.3021V17.1536H14.9479V28H5.25C3.80382 28 2.56727 27.4865 1.54036 26.4596C0.513455 25.4327 0 24.1962 0 22.75V5.25C0 3.80382 0.513455 2.56727 1.54036 1.54036C2.56727 0.513455 3.80382 0 5.25 0H22.75Z"/>
</g>
<defs>
<clipPath id="clip0_3_216">
<rect width="28" height="28" fill="white"/>
</clipPath>
</defs>
</svg>
