<svg xmlns="http://www.w3.org/2000/svg" width="28" height="28" viewBox="1 0.5 28 28" fill="none">
<path fill-rule="evenodd" clip-rule="evenodd" d="M1.25 3.42929C1.25 2.84027 1.49206 2.27537 1.92292 1.85887C2.35379 1.44237 2.93817 1.20838 3.5475 1.20838H26.45C26.752 1.2079 27.0511 1.265 27.3302 1.37642C27.6093 1.48783 27.8629 1.65136 28.0766 1.85766C28.2902 2.06395 28.4597 2.30896 28.5752 2.57864C28.6908 2.84832 28.7502 3.13739 28.75 3.42929V25.5684C28.7503 25.8603 28.6911 26.1495 28.5757 26.4193C28.4603 26.6891 28.291 26.9343 28.0775 27.1408C27.864 27.3473 27.6105 27.5111 27.3314 27.6228C27.0524 27.7345 26.7533 27.7919 26.4512 27.7917H3.5475C3.24568 27.7917 2.94682 27.7342 2.668 27.6225C2.38917 27.5108 2.13584 27.3471 1.92248 27.1408C1.70912 26.9344 1.53991 26.6895 1.42453 26.4199C1.30914 26.1503 1.24984 25.8613 1.25 25.5696V3.42929ZM12.135 11.3439H15.8587V13.1515C16.3962 12.1124 17.7712 11.1771 19.8375 11.1771C23.7987 11.1771 24.7375 13.247 24.7375 17.0448V24.0797H20.7287V17.91C20.7287 15.747 20.1912 14.5266 18.8262 14.5266C16.9325 14.5266 16.145 15.8425 16.145 17.91V24.0797H12.135V11.3439ZM5.26 23.9142H9.27V11.1771H5.26V23.913V23.9142ZM9.84375 7.02288C9.85131 7.35477 9.79021 7.68479 9.66405 7.99355C9.53788 8.30231 9.34919 8.5836 9.10904 8.82092C8.86889 9.05823 8.58212 9.24678 8.26557 9.37551C7.94901 9.50424 7.60905 9.57055 7.26562 9.57055C6.9222 9.57055 6.58224 9.50424 6.26568 9.37551C5.94913 9.24678 5.66236 9.05823 5.42221 8.82092C5.18206 8.5836 4.99337 8.30231 4.8672 7.99355C4.74103 7.68479 4.67994 7.35477 4.6875 7.02288C4.70234 6.37141 4.98048 5.75146 5.46236 5.29579C5.94423 4.84012 6.59153 4.58496 7.26562 4.58496C7.93972 4.58496 8.58702 4.84012 9.06889 5.29579C9.55077 5.75146 9.82891 6.37141 9.84375 7.02288Z"/>
</svg>