<svg width="112" height="43" viewBox="0 0 112 43" fill="none" xmlns="http://www.w3.org/2000/svg">
<path d="M62.2969 8.06592V33.7124H57.2344V13.9019L51.1523 15.8354V11.8452L61.752 8.06592H62.2969ZM75.3926 22.0581L71.3496 21.0913L72.8086 8.11865H87.1875V12.2144H76.9746L76.3418 17.8921C76.6816 17.6929 77.1973 17.4819 77.8887 17.2593C78.5801 17.0249 79.3535 16.9077 80.209 16.9077C81.4512 16.9077 82.5527 17.1011 83.5137 17.4878C84.4746 17.8745 85.2891 18.437 85.957 19.1753C86.6367 19.9136 87.1523 20.8159 87.5039 21.8823C87.8555 22.9487 88.0312 24.1558 88.0312 25.5034C88.0312 26.6401 87.8555 27.7241 87.5039 28.7554C87.1523 29.7749 86.6191 30.689 85.9043 31.4976C85.1895 32.2944 84.293 32.9214 83.2148 33.3784C82.1367 33.8354 80.8594 34.064 79.3828 34.064C78.2812 34.064 77.2148 33.8999 76.1836 33.5718C75.1641 33.2437 74.2441 32.7573 73.4238 32.1128C72.6152 31.4683 71.9648 30.689 71.4727 29.7749C70.9922 28.8491 70.7402 27.7944 70.7168 26.6108H75.7441C75.8145 27.3374 76.002 27.9644 76.3066 28.4917C76.623 29.0073 77.0391 29.4058 77.5547 29.687C78.0703 29.9683 78.6738 30.1089 79.3652 30.1089C80.0098 30.1089 80.5605 29.9858 81.0176 29.7397C81.4746 29.4937 81.8438 29.1538 82.125 28.7202C82.4062 28.2749 82.6113 27.7593 82.7402 27.1733C82.8809 26.5757 82.9512 25.9312 82.9512 25.2397C82.9512 24.5483 82.8691 23.9214 82.7051 23.3589C82.541 22.7964 82.2891 22.3101 81.9492 21.8999C81.6094 21.4897 81.1758 21.1733 80.6484 20.9507C80.1328 20.728 79.5293 20.6167 78.8379 20.6167C77.9004 20.6167 77.1738 20.7632 76.6582 21.0562C76.1543 21.3491 75.7324 21.6831 75.3926 22.0581ZM104.361 7.85498H105.1V11.8979H104.801C103.465 11.8979 102.275 12.0972 101.232 12.4956C100.189 12.894 99.3047 13.4624 98.5781 14.2007C97.8633 14.9272 97.3125 15.8062 96.9258 16.8374C96.5508 17.8687 96.3633 19.0229 96.3633 20.3003V24.5542C96.3633 25.4683 96.4512 26.2769 96.627 26.98C96.8145 27.6714 97.0781 28.2515 97.418 28.7202C97.7695 29.1772 98.1797 29.5229 98.6484 29.7573C99.1172 29.98 99.6445 30.0913 100.23 30.0913C100.781 30.0913 101.279 29.9741 101.725 29.7397C102.182 29.5054 102.568 29.1772 102.885 28.7554C103.213 28.3218 103.459 27.8179 103.623 27.2437C103.799 26.6577 103.887 26.019 103.887 25.3276C103.887 24.6362 103.799 23.9976 103.623 23.4116C103.459 22.8257 103.213 22.3218 102.885 21.8999C102.557 21.4663 102.158 21.1323 101.689 20.8979C101.221 20.6636 100.693 20.5464 100.107 20.5464C99.3105 20.5464 98.6074 20.7339 97.998 21.1089C97.4004 21.4722 96.9316 21.9409 96.5918 22.5151C96.252 23.0894 96.0703 23.6929 96.0469 24.3257L94.5176 23.3413C94.5527 22.439 94.7402 21.5835 95.0801 20.7749C95.4316 19.9663 95.9121 19.2515 96.5215 18.6304C97.1426 17.9976 97.8867 17.5054 98.7539 17.1538C99.6211 16.7905 100.6 16.6089 101.689 16.6089C102.885 16.6089 103.934 16.8374 104.836 17.2944C105.75 17.7515 106.512 18.3784 107.121 19.1753C107.73 19.9722 108.188 20.8921 108.492 21.9351C108.797 22.978 108.949 24.0913 108.949 25.2749C108.949 26.5171 108.744 27.6714 108.334 28.7378C107.936 29.8042 107.355 30.7358 106.594 31.5327C105.844 32.3296 104.941 32.9507 103.887 33.396C102.832 33.8413 101.648 34.064 100.336 34.064C98.9766 34.064 97.7402 33.8179 96.627 33.3257C95.5254 32.8218 94.5762 32.1187 93.7793 31.2163C92.9824 30.314 92.3672 29.2417 91.9336 27.9995C91.5117 26.7573 91.3008 25.3979 91.3008 23.9214V21.9526C91.3008 19.8901 91.5996 18.0034 92.1973 16.2925C92.8066 14.5698 93.6797 13.0815 94.8164 11.8276C95.9531 10.562 97.3242 9.5835 98.9297 8.89209C100.535 8.20068 102.346 7.85498 104.361 7.85498Z" fill="white"/>
<path d="M32.7682 36.9418L37.1292 32.5849C37.4385 32.2776 37.6839 31.9123 37.8513 31.51C38.0187 31.1077 38.1048 30.6764 38.1047 30.2408C38.1047 29.3531 37.7563 28.5185 37.1292 27.8926L32.4321 23.2044C32.1242 22.8957 31.7582 22.6508 31.3552 22.4837C30.9521 22.3166 30.52 22.2306 30.0835 22.2307C29.1941 22.2307 28.358 22.5785 27.7309 23.2044L24.2962 26.6326C22.524 25.8301 20.9119 24.7144 19.5376 23.3394C18.1565 21.9678 17.0347 20.3588 16.2258 18.5898L19.6605 15.1616C19.9698 14.8543 20.2152 14.489 20.3826 14.0867C20.55 13.6844 20.6361 13.2531 20.636 12.8175C20.636 11.9298 20.2876 11.0952 19.6605 10.4693L14.9675 5.77699C14.659 5.46792 14.2923 5.22279 13.8886 5.05569C13.4848 4.8886 13.0519 4.80284 12.6148 4.80335C11.7254 4.80335 10.8893 5.15108 10.2622 5.77699L5.90522 10.1257C4.90104 11.1238 4.33132 12.5025 4.33132 13.918C4.33132 14.2166 4.35591 14.503 4.40509 14.7852C5.31501 20.2998 8.25379 25.7694 12.6722 30.1835C17.0865 34.5936 22.5624 37.5227 28.1039 38.4431C29.7966 38.7213 31.5386 38.1609 32.7682 36.9418Z" fill="#5CD6C9"/>
</svg>
