<svg width="16" height="16" viewBox="0 0 16 16" fill="none" xmlns="http://www.w3.org/2000/svg">
<g clip-path="url(#clip0_1425_3764)">
<path d="M3.5 -3.05176e-05C3.63261 -3.05176e-05 3.75979 0.0526479 3.85355 0.146416C3.94732 0.240184 4 0.367361 4 0.499969V0.999969H12V0.499969C12 0.367361 12.0527 0.240184 12.1464 0.146416C12.2402 0.0526479 12.3674 -3.05176e-05 12.5 -3.05176e-05C12.6326 -3.05176e-05 12.7598 0.0526479 12.8536 0.146416C12.9473 0.240184 13 0.367361 13 0.499969V0.999969H14C14.5304 0.999969 15.0391 1.21068 15.4142 1.58576C15.7893 1.96083 16 2.46954 16 2.99997V14C16 14.5304 15.7893 15.0391 15.4142 15.4142C15.0391 15.7893 14.5304 16 14 16H2C1.46957 16 0.960859 15.7893 0.585786 15.4142C0.210714 15.0391 0 14.5304 0 14V2.99997C0 2.46954 0.210714 1.96083 0.585786 1.58576C0.960859 1.21068 1.46957 0.999969 2 0.999969H3V0.499969C3 0.367361 3.05268 0.240184 3.14645 0.146416C3.24021 0.0526479 3.36739 -3.05176e-05 3.5 -3.05176e-05ZM1 3.99997V14C1 14.2652 1.10536 14.5195 1.29289 14.7071C1.48043 14.8946 1.73478 15 2 15H14C14.2652 15 14.5196 14.8946 14.7071 14.7071C14.8946 14.5195 15 14.2652 15 14V3.99997H1Z" fill="#868788"/>
</g>
<defs>
<clipPath id="clip0_1425_3764">
<rect width="16" height="16" fill="white"/>
</clipPath>
</defs>
</svg>
