<svg xmlns="http://www.w3.org/2000/svg" width="28" height="28" viewBox="3.25 2.25 28 30" fill="none">
<path d="M28.9074 10.4442C28.9074 9.70915 28.6989 9.04482 28.222 8.5181C26.6776 6.81347 25.1269 5.11635 23.5705 3.42486C23.1221 2.93755 22.5607 2.68546 21.9307 2.6842C18.3775 2.67607 14.8243 2.67044 11.2711 2.68671C10.054 2.69234 9.03563 3.74014 8.8797 5.0638C8.82316 5.54485 8.84257 6.02778 8.85457 6.50883C8.86085 6.7603 8.78774 6.81723 8.57584 6.80096C8.31311 6.78094 8.04752 6.79596 7.78307 6.79596C6.13985 6.79721 5.08834 7.9476 5.08777 9.74981C5.08663 16.021 5.08663 22.2928 5.08777 28.5639C5.08777 30.3424 6.14727 31.5009 7.76879 31.5015C10.3236 31.5021 12.8784 31.5015 15.4332 31.5015C17.988 31.5015 20.5622 31.5028 23.1267 31.5015C24.7008 31.5002 25.7569 30.3461 25.7655 28.6233C25.7674 28.2614 25.9381 28.0789 26.2778 28.076C27.8022 28.0628 28.9 26.9187 28.904 25.2698C28.9166 20.3279 28.9103 15.3854 28.9068 10.4435L28.9074 10.4442ZM24.2416 29.6111C23.9555 30.0033 23.5705 30.1372 23.1267 30.1365C20.5622 30.134 17.9971 30.1353 15.4326 30.1353C12.8681 30.1353 10.303 30.1359 7.73852 30.1353C7.05827 30.1353 6.58821 29.7856 6.40429 29.1626C6.3546 28.9949 6.35232 28.8254 6.35232 28.654C6.35175 22.3178 6.35061 15.9816 6.35232 9.64472C6.35232 8.72578 6.86636 8.17092 7.70825 8.16341C8.02125 8.16091 8.33481 8.17029 8.64781 8.15966C8.80031 8.15466 8.86599 8.2072 8.84886 8.37735C8.84143 8.45117 8.84772 8.52748 8.84772 8.60255C8.84772 14.113 8.84714 19.6241 8.84772 25.1346C8.84772 26.5865 9.57423 27.66 10.7737 27.9903C11.041 28.0641 11.3146 28.0772 11.5893 28.0766C15.7205 28.076 19.8511 28.0766 23.9823 28.0766C24.5232 28.0766 24.5186 28.0766 24.5192 28.6853C24.5192 29.0299 24.4387 29.3402 24.241 29.6111H24.2416ZM27.6452 25.169C27.6452 26.1599 27.1557 26.6929 26.247 26.6929C21.3327 26.6941 16.4179 26.6941 11.5036 26.6929C10.5966 26.6929 10.1111 26.1593 10.1111 25.1634C10.1105 19.4165 10.1111 13.6689 10.1111 7.92195C10.1111 7.11812 10.1077 6.31428 10.1123 5.50982C10.1174 4.61028 10.6286 4.04791 11.4551 4.04728C14.8814 4.04353 18.3078 4.04791 21.7348 4.0404C21.9558 4.0404 22.0141 4.10733 22.0124 4.34755C22.001 5.55924 22.0267 6.77093 22.0021 7.982C21.9741 9.34258 22.9068 10.2965 24.0566 10.2271C24.5546 10.1971 25.0549 10.2271 25.5541 10.2196C25.9631 10.2133 26.2241 9.94186 26.2247 9.5415C26.2247 9.14678 25.954 8.86153 25.5559 8.85715C25.0172 8.85089 24.4786 8.86028 23.9406 8.8534C23.5339 8.84839 23.2798 8.59692 23.2758 8.16967C23.2661 7.1519 23.2729 6.1335 23.2729 5.01439C23.4837 5.25022 23.6373 5.42537 23.7938 5.5974C24.9219 6.83349 26.0465 8.07333 27.1808 9.30254C27.4995 9.64785 27.6514 10.0388 27.6509 10.533C27.6446 15.4117 27.6474 20.2904 27.6463 25.169H27.6452Z" fill="#7B7B7B"/>
<path d="M18.8883 17.7895C17.1063 17.7895 15.3248 17.7895 13.5428 17.7895C13.484 17.7895 13.4251 17.7902 13.3663 17.7895C12.9145 17.782 12.5998 17.4911 12.6038 17.0852C12.6078 16.6767 12.9185 16.3921 13.376 16.3921C17.0474 16.3908 20.7183 16.3902 24.3897 16.3921C24.842 16.3921 25.1567 16.6892 25.1522 17.0958C25.1482 17.5037 24.8369 17.7883 24.38 17.7889C22.5494 17.7908 20.7188 17.7895 18.8877 17.7895H18.8883Z" fill="#7B7B7B"/>
<path d="M18.8807 14.332C17.0222 14.332 15.163 14.3339 13.3045 14.3308C12.7756 14.3295 12.4706 13.8547 12.6768 13.3656C12.7813 13.1185 12.9726 13.0015 13.2108 12.9765C13.3273 12.9639 13.4456 12.9727 13.5626 12.9727C17.1335 12.9727 20.7039 12.9727 24.2747 12.9727C24.3627 12.9727 24.4512 12.9677 24.5386 12.9752C24.8865 13.0046 25.1606 13.3186 25.148 13.6689C25.1349 14.0368 24.8687 14.3258 24.5146 14.3289C23.6242 14.3358 22.7343 14.332 21.8439 14.332C20.8558 14.332 19.8677 14.332 18.8796 14.332H18.8807Z" fill="#7B7B7B"/>
<path d="M18.8762 19.8482C20.7347 19.8482 22.5938 19.8463 24.4524 19.8494C24.9813 19.8501 25.2863 20.3261 25.0789 20.8147C24.9739 21.0618 24.7831 21.1769 24.5443 21.2038C24.4472 21.2144 24.349 21.2075 24.2508 21.2075C20.6605 21.2075 17.0701 21.2075 13.4798 21.2075C13.3919 21.2075 13.3033 21.2125 13.216 21.205C12.8681 21.175 12.5945 20.861 12.6071 20.5107C12.6202 20.1441 12.8881 19.8538 13.2411 19.8513C14.1704 19.8451 15.0996 19.8482 16.0289 19.8482C16.9776 19.8482 17.9269 19.8482 18.8756 19.8482H18.8762Z" fill="#7B7B7B"/>
<path d="M16.4009 9.55414C17.3993 9.55414 18.3977 9.55289 19.3966 9.55414C19.8747 9.55476 20.1203 9.78559 20.118 10.2241C20.1157 10.652 19.8479 10.9122 19.3972 10.9122C17.3707 10.9135 15.3443 10.9122 13.3178 10.9135C13.0168 10.9135 12.7815 10.7965 12.6621 10.4781C12.5519 10.1847 12.6335 9.93385 12.8283 9.71866C12.9631 9.56915 13.1362 9.55164 13.3178 9.55226C14.3459 9.55476 15.3734 9.55351 16.4015 9.55351L16.4009 9.55414Z" fill="#7B7B7B"/>
<path d="M22.0177 24.6261C21.2158 24.6261 20.4133 24.6273 19.6114 24.6261C19.1556 24.6248 18.8723 24.3602 18.8803 23.9505C18.8877 23.5376 19.1727 23.2686 19.6148 23.268C21.2192 23.2661 22.823 23.2661 24.4274 23.268C24.8535 23.268 25.1568 23.5414 25.1465 23.9361C25.1385 24.2514 24.9489 24.6474 24.424 24.6323C23.6226 24.6098 22.8202 24.6261 22.0177 24.6261Z" fill="#7B7B7B"/>
<path d="M15.1027 7.4953C14.5252 7.4953 13.9478 7.49781 13.3703 7.49468C12.9168 7.49155 12.6033 7.20067 12.605 6.79406C12.6061 6.3862 12.918 6.09845 13.3738 6.09782C14.5384 6.09532 15.7035 6.09469 16.8681 6.09782C17.3216 6.09907 17.6352 6.3912 17.6335 6.79781C17.6318 7.20567 17.3199 7.49218 16.8647 7.49468C16.2775 7.49843 15.6898 7.4953 15.1027 7.4953Z" fill="#7B7B7B"/>
</svg>
