<svg xmlns="http://www.w3.org/2000/svg" width="28" height="28" viewBox="0.5 1 28 28" fill="none">
<path d="M14.4879 28.5621C10.6841 28.5621 6.88034 28.5621 3.07704 28.5621C2.5582 28.5621 2.49487 28.4892 2.49487 27.8915C2.49487 21.4805 2.49487 15.07 2.49585 8.65904C2.49585 8.52105 2.48805 8.37368 2.52605 8.24673C2.59961 8.00276 2.82663 7.93708 3.10042 8.06569C4.38995 8.66953 5.67801 9.27668 6.96705 9.88163C7.53314 10.1471 8.09679 10.4198 8.66775 10.672C8.9352 10.7901 9.03702 10.9784 9.03556 11.3051C9.0263 13.3849 9.03556 15.4647 9.02484 17.5445C9.02338 17.8138 9.08281 17.9165 9.3186 17.869C9.37365 17.858 9.43309 17.8585 9.48862 17.869C9.71418 17.9121 9.76777 17.8066 9.76728 17.5555C9.75997 14.039 9.76192 10.523 9.76241 7.00648C9.76241 6.4065 9.82136 6.34689 10.348 6.33585C10.6281 6.32978 11.0018 6.47605 11.1606 6.27017C11.2989 6.09133 11.221 5.67681 11.203 5.36882C11.1805 4.9808 11.315 4.77216 11.6341 4.61374C13.6992 3.59097 15.756 2.54666 17.8153 1.50898C18.2673 1.28102 18.4749 1.43171 18.4749 1.99581C18.4759 4.96534 18.4788 7.93487 18.4695 10.9044C18.4685 11.1903 18.5217 11.3267 18.7901 11.272C18.8451 11.261 18.9046 11.2615 18.9601 11.272C19.1628 11.3106 19.2071 11.2141 19.2061 10.9927C19.1978 9.14863 19.2017 7.30509 19.2017 5.461C19.2017 5.38593 19.2037 5.31087 19.2017 5.2358C19.1954 5.03047 19.2373 4.85385 19.4117 4.74787C19.5817 4.6441 19.7206 4.73131 19.8584 4.83508C20.9901 5.68896 22.1223 6.54284 23.254 7.39727C23.5054 7.58714 23.7494 7.79081 24.0091 7.96578C24.2317 8.11592 24.3028 8.31904 24.3019 8.6044C24.2946 10.4805 24.3048 12.3566 24.2912 14.2327C24.2892 14.5247 24.3598 14.5915 24.6044 14.5793C25.0672 14.5562 25.5315 14.57 25.9953 14.5733C26.3616 14.576 26.4693 14.6969 26.4693 15.1087C26.4702 19.4073 26.4702 23.7065 26.4693 28.0052C26.4693 28.4528 26.3684 28.561 25.9563 28.561C22.1335 28.561 18.3112 28.561 14.4884 28.561L14.4879 28.5621Z" fill="#7B7B7B"/>
<path d="M10.4888 12.509C10.4888 10.8371 10.4932 9.16525 10.4839 7.49337C10.4825 7.24167 10.5195 7.14563 10.7699 7.14674C13.0021 7.15888 15.2348 7.15833 17.4674 7.14729C17.7076 7.14619 17.7646 7.22291 17.7617 7.48674C17.749 8.65469 17.751 9.82318 17.7607 10.9911C17.7627 11.2185 17.7037 11.2781 17.5069 11.2759C16.5608 11.2649 15.6152 11.2704 14.6692 11.2715C14.2146 11.2715 14.1226 11.3769 14.1226 11.8947C14.1226 17.05 14.1196 22.2052 14.1289 27.3605C14.1294 27.6685 14.0685 27.7624 13.7903 27.7474C13.271 27.7199 12.7492 27.7193 12.2299 27.7474C11.9634 27.7624 11.9274 27.6558 11.9284 27.3887C11.9366 24.4307 11.9337 21.4722 11.9337 18.5143C11.9337 17.9497 11.8606 17.868 11.3594 17.8674C11.1513 17.8674 10.9418 17.8525 10.7353 17.8718C10.5365 17.8906 10.482 17.8155 10.4834 17.5898C10.4932 16.3037 10.4878 15.0177 10.4878 13.7316C10.4878 13.3242 10.4878 12.9169 10.4878 12.5096L10.4888 12.509Z" fill="#F5F5F5"/>
<path d="M20.6637 19.9344C20.6637 22.432 20.6603 24.9291 20.6685 27.4267C20.6695 27.6767 20.6169 27.7611 20.3899 27.7446C20.0693 27.7214 19.7463 27.7247 19.4253 27.7435C19.2109 27.7562 19.1335 27.6971 19.1393 27.4322C19.1564 26.6285 19.1471 25.8243 19.1447 25.0207C19.1437 24.6078 19.037 24.4869 18.6726 24.4853C18.0481 24.4825 17.424 24.4814 16.7995 24.4853C16.4726 24.4875 16.3561 24.6205 16.3552 24.9898C16.3522 25.8149 16.3464 26.6407 16.3596 27.4658C16.363 27.6955 16.304 27.7534 16.1087 27.7435C15.7501 27.7247 15.3896 27.7313 15.0306 27.7413C14.88 27.7457 14.8357 27.6855 14.8386 27.5194C14.8469 27.037 14.8415 26.5546 14.8415 26.0727C14.8415 21.5279 14.844 16.9836 14.8357 12.4388C14.8352 12.1584 14.8898 12.0833 15.1441 12.0856C16.8847 12.0999 18.6254 12.101 20.366 12.085C20.6286 12.0828 20.67 12.1711 20.669 12.4421C20.6598 14.9397 20.6637 17.4368 20.6637 19.9344Z" fill="#F5F5F5"/>
<path d="M3.22119 18.3906C3.22119 15.3785 3.2246 12.3665 3.21583 9.35502C3.21486 9.05034 3.27575 9.0255 3.50813 9.137C5.02809 9.86282 6.55097 10.5804 8.07823 11.2863C8.26141 11.3708 8.30525 11.4745 8.30476 11.6837C8.29746 13.6454 8.29697 15.6065 8.30476 17.5681C8.30574 17.7983 8.27066 17.8806 8.04657 17.8745C7.33725 17.8557 6.62745 17.8668 5.91814 17.8679C5.49918 17.8684 5.39785 17.9816 5.39785 18.4496C5.39785 21.4401 5.39395 24.4306 5.40418 27.4211C5.40515 27.6966 5.33939 27.7551 5.10847 27.7462C4.56967 27.7253 4.02989 27.7253 3.49108 27.7462C3.26163 27.7551 3.21583 27.6717 3.21632 27.4267C3.22363 24.4146 3.22119 21.4026 3.22119 18.3911V18.3906Z" fill="#F5F5F5"/>
<path d="M25.7427 21.5723C25.7427 23.5113 25.7383 25.4509 25.7481 27.3899C25.7495 27.6548 25.714 27.752 25.4485 27.7481C24.1813 27.7288 22.9142 27.7332 21.6471 27.7459C21.4323 27.7481 21.3845 27.6824 21.385 27.4451C21.3918 23.524 21.3923 19.6023 21.385 15.6812C21.385 15.4334 21.4483 15.3815 21.6559 15.3832C22.9323 15.3942 24.2091 15.3953 25.4855 15.3826C25.7067 15.3804 25.7486 15.4588 25.7476 15.6912C25.7398 17.6517 25.7432 19.6123 25.7432 21.5734L25.7427 21.5723Z" fill="#F5F5F5"/>
<path d="M6.12845 23.2154C6.12845 21.8001 6.13283 20.3855 6.12406 18.9703C6.1226 18.7517 6.16303 18.6832 6.36813 18.6843C7.90075 18.6954 9.43386 18.6948 10.9665 18.6843C11.1701 18.6832 11.213 18.7511 11.2125 18.9708C11.2057 21.8007 11.2057 24.6311 11.2125 27.461C11.213 27.6857 11.1653 27.7629 10.9636 27.7436C10.7473 27.7226 10.5276 27.7249 10.3113 27.7436C10.1164 27.7602 10.0531 27.6939 10.0569 27.4632C10.0696 26.6485 10.0633 25.8338 10.0613 25.0192C10.0604 24.6068 9.95416 24.4876 9.58683 24.486C8.96229 24.4832 8.33774 24.4821 7.71368 24.4865C7.38874 24.4887 7.27329 24.6228 7.27182 24.9943C7.2689 25.809 7.25964 26.6242 7.27718 27.4384C7.28303 27.7044 7.20411 27.7624 6.99316 27.7436C6.77686 27.7243 6.55715 27.7243 6.34085 27.7436C6.15914 27.7602 6.12357 27.6846 6.12455 27.4919C6.13186 26.0662 6.12845 24.6405 6.12845 23.2148V23.2154Z" fill="#F5F5F5"/>
<path d="M19.9324 5.87012C20.8711 6.57828 21.7651 7.25112 22.6576 7.92671C22.9552 8.15191 23.3503 8.31529 23.5169 8.63156C23.6909 8.96163 23.5627 9.44404 23.5642 9.85967C23.5691 11.3378 23.5618 12.8165 23.5705 14.2946C23.572 14.5176 23.5228 14.5844 23.3221 14.5789C22.755 14.5629 22.1875 14.564 21.6204 14.5789C21.428 14.5839 21.3827 14.5132 21.3851 14.3062C21.3948 13.4921 21.3905 12.678 21.3885 11.8638C21.3875 11.3969 21.2779 11.2754 20.8653 11.2721C20.6193 11.2699 20.3737 11.2666 20.1277 11.2738C19.9981 11.2776 19.9265 11.2644 19.9275 11.0734C19.9348 9.3607 19.9319 7.64742 19.9319 5.87122L19.9324 5.87012Z" fill="#F5F5F5"/>
<path d="M14.8517 6.33915C13.9631 6.33915 13.0741 6.33308 12.1855 6.34412C11.9935 6.34633 11.9482 6.29113 11.9234 6.06648C11.8654 5.54544 12.0291 5.29043 12.4675 5.08069C14.1512 4.27593 15.8148 3.41653 17.4829 2.56928C17.6948 2.46165 17.7655 2.46772 17.7616 2.76743C17.7474 3.85976 17.7489 4.95263 17.7616 6.04551C17.7645 6.29279 17.6982 6.34798 17.4902 6.34522C16.6109 6.33197 15.7315 6.3397 14.8522 6.3397L14.8517 6.33915Z" fill="#F5F5F5"/>
<path d="M8.00062 26.5078C8.00062 26.1766 8.00793 25.8455 7.9977 25.5148C7.99234 25.3459 8.04203 25.293 8.19013 25.2979C8.5102 25.309 8.83124 25.3095 9.15131 25.2979C9.30769 25.2924 9.34033 25.3647 9.33887 25.5242C9.33302 26.1866 9.33107 26.8484 9.33984 27.5107C9.34228 27.6873 9.28528 27.7238 9.14449 27.7194C8.82442 27.7089 8.50338 27.7067 8.18331 27.7205C8.02839 27.7271 7.99332 27.6636 7.99819 27.5019C8.00793 27.1713 8.00111 26.8401 8.00111 26.5089L8.00062 26.5078Z" fill="#F5F5F5"/>
<path d="M17.0855 26.5281C17.0855 26.1864 17.0904 25.8442 17.0831 25.5031C17.0796 25.3546 17.1157 25.2939 17.2565 25.2978C17.5863 25.3077 17.9166 25.3066 18.2459 25.2978C18.3833 25.2945 18.4242 25.3524 18.4228 25.5026C18.4174 26.1754 18.4164 26.8482 18.4233 27.5211C18.4247 27.6773 18.3823 27.7225 18.2464 27.7181C17.9166 27.7076 17.5863 27.7076 17.257 27.7181C17.1211 27.7225 17.0777 27.6751 17.0821 27.5211C17.0913 27.1904 17.085 26.8593 17.085 26.5281H17.0855Z" fill="#F5F5F5"/>
<path d="M16.3371 13.7503C16.5636 13.7503 16.7897 13.7519 17.0162 13.7503C17.2549 13.7481 17.4001 13.8877 17.4094 14.1482C17.4181 14.3961 17.2788 14.5583 17.061 14.565C16.571 14.5799 16.0804 14.5799 15.5903 14.5655C15.373 14.5594 15.2317 14.3988 15.239 14.1515C15.2468 13.8916 15.391 13.7497 15.6297 13.7508C15.8655 13.7519 16.1013 13.7508 16.3371 13.7508V13.7503Z" fill="#7B7B7B"/>
<path d="M16.3371 18.2544C16.5729 18.2544 16.8087 18.2516 17.0445 18.2549C17.2725 18.2582 17.4011 18.4078 17.4098 18.6507C17.4181 18.8814 17.2954 19.0536 17.0893 19.0608C16.5807 19.0784 16.0711 19.0784 15.563 19.0613C15.3574 19.0547 15.2322 18.8842 15.239 18.6534C15.2463 18.4111 15.374 18.2593 15.602 18.2555C15.847 18.2511 16.0925 18.2544 16.3376 18.2544H16.3371Z" fill="#7B7B7B"/>
<path d="M16.3089 21.3272C16.0824 21.3272 15.8559 21.3333 15.6298 21.3255C15.4004 21.3178 15.2537 21.1831 15.2357 20.9182C15.2191 20.682 15.3935 20.5097 15.6474 20.5064C16.0999 20.5009 16.5525 20.507 17.0056 20.5037C17.2414 20.502 17.3841 20.629 17.4124 20.8906C17.4382 21.1268 17.2682 21.3123 17.0168 21.3244C16.7815 21.336 16.5452 21.3266 16.3094 21.3272H16.3089Z" fill="#7B7B7B"/>
<path d="M16.3331 16.0019C16.5596 16.0019 16.7857 16.0052 17.0122 16.0008C17.2514 15.9969 17.399 16.1327 17.4088 16.3933C17.419 16.6593 17.2655 16.8127 17.0366 16.8177C16.5557 16.8287 16.0749 16.8293 15.5941 16.815C15.3773 16.8083 15.2336 16.6521 15.2389 16.4043C15.2443 16.1449 15.3856 15.9997 15.6262 16.0008C15.862 16.0019 16.0978 16.0008 16.3336 16.0008L16.3331 16.0019Z" fill="#7B7B7B"/>
<path d="M19.1972 13.7515C19.433 13.7515 19.6688 13.7466 19.9041 13.7532C20.1291 13.7593 20.2582 13.9061 20.2646 14.1523C20.2704 14.3874 20.1418 14.5513 19.9396 14.5585C19.4315 14.5767 18.9219 14.5773 18.4143 14.5585C18.2112 14.5508 18.0894 14.3863 18.0986 14.1462C18.1084 13.8939 18.2385 13.7576 18.4621 13.7526C18.7071 13.7471 18.9522 13.7515 19.1972 13.7515Z" fill="#7B7B7B"/>
<path d="M19.1763 20.5053C19.4121 20.5053 19.6474 20.5031 19.8831 20.5064C20.1204 20.5091 20.2626 20.6515 20.2646 20.9154C20.2665 21.1671 20.1194 21.315 19.9051 21.3211C19.4247 21.3349 18.9439 21.3349 18.4635 21.3216C18.2355 21.3155 18.087 21.1676 18.0996 20.8927C18.1123 20.6212 18.2648 20.5031 18.4976 20.5042C18.7237 20.5053 18.9502 20.5042 19.1763 20.5042V20.5053Z" fill="#7B7B7B"/>
<path d="M19.1835 18.2537C19.4193 18.2537 19.6546 18.2521 19.8904 18.2537C20.115 18.2559 20.2514 18.3923 20.2641 18.6384C20.2772 18.8901 20.1398 19.0557 19.9255 19.0634C19.4266 19.0811 18.9268 19.0817 18.4279 19.0623C18.2111 19.0541 18.083 18.8863 18.0996 18.6313C18.1157 18.379 18.254 18.2543 18.4766 18.2532C18.7124 18.2521 18.9477 18.2532 19.1835 18.2532V18.2537Z" fill="#7B7B7B"/>
<path d="M19.1889 16.0018C19.415 16.0018 19.6415 16.0035 19.8675 16.0013C20.1038 15.9985 20.2539 16.1282 20.2641 16.3926C20.2743 16.662 20.1184 16.8115 19.8924 16.8176C19.412 16.8303 18.9312 16.8314 18.4509 16.8149C18.2209 16.8071 18.0811 16.646 18.1001 16.3738C18.1176 16.121 18.2594 16.0013 18.482 16.0024C18.7178 16.0029 18.9531 16.0024 19.1889 16.0024V16.0018Z" fill="#7B7B7B"/>
<path d="M5.28766 15.2428C4.97538 15.2428 4.66311 15.2401 4.35084 15.2434C4.1131 15.2456 3.96208 15.1153 3.95039 14.8521C3.93821 14.5838 4.09069 14.4276 4.32015 14.4237C4.97295 14.4127 5.62575 14.4116 6.27855 14.4237C6.50314 14.4282 6.65903 14.5711 6.6488 14.8498C6.63857 15.1247 6.48608 15.2428 6.25273 15.2428C5.9312 15.2428 5.60919 15.2428 5.28766 15.2428Z" fill="#7B7B7B"/>
<path d="M5.30521 16.0018C5.62674 16.0018 5.94875 16.0018 6.27028 16.0018C6.4934 16.0018 6.63371 16.1233 6.6493 16.3794C6.66635 16.6576 6.51727 16.811 6.29123 16.816C5.62917 16.8298 4.96663 16.827 4.30457 16.8149C4.08632 16.811 3.94407 16.6537 3.9504 16.4026C3.95673 16.1387 4.09947 15.9996 4.34013 16.0007C4.66166 16.0029 4.98368 16.0007 5.30521 16.0013V16.0018Z" fill="#7B7B7B"/>
<path d="M5.29539 12.0939C4.98312 12.0939 4.67085 12.0983 4.35906 12.0928C4.10281 12.0884 3.9323 11.9206 3.94692 11.6805C3.96348 11.4117 4.11158 11.2759 4.34152 11.2737C4.98458 11.2682 5.62813 11.2654 6.27118 11.2759C6.49625 11.2798 6.65458 11.4139 6.64923 11.6926C6.64387 11.967 6.49528 12.0923 6.26047 12.0934C5.93894 12.095 5.61692 12.0934 5.29539 12.0934V12.0939Z" fill="#7B7B7B"/>
<path d="M5.30711 12.8463C5.61939 12.8463 5.93117 12.8479 6.24345 12.8457C6.47485 12.8441 6.62879 12.9506 6.65023 13.2266C6.66971 13.4783 6.52064 13.6571 6.25903 13.6615C5.61598 13.672 4.97292 13.6692 4.32986 13.6615C4.09845 13.6588 3.94451 13.513 3.95036 13.2442C3.9562 12.9793 4.10333 12.8441 4.34252 12.8457C4.66405 12.8479 4.98558 12.8457 5.30711 12.8457V12.8463Z" fill="#7B7B7B"/>
<path d="M23.9363 16.3274C24.1721 16.3274 24.4079 16.3241 24.6437 16.3285C24.8683 16.3329 25.0027 16.4758 25.013 16.7209C25.0232 16.9704 24.8877 17.136 24.671 17.1432C24.1809 17.1603 23.6898 17.1586 23.1997 17.1454C22.9839 17.1393 22.8387 16.9831 22.8431 16.7353C22.8475 16.4747 22.9917 16.3296 23.229 16.3274C23.4647 16.3252 23.7005 16.3274 23.9363 16.3274Z" fill="#7B7B7B"/>
<path d="M23.9311 19.302C23.6953 19.302 23.4595 19.3037 23.2242 19.302C22.985 19.3004 22.8447 19.1519 22.8438 18.8914C22.8428 18.6436 22.9865 18.494 23.2057 18.4896C23.6861 18.4796 24.1674 18.4785 24.6477 18.4896C24.8811 18.4945 25.0238 18.6518 25.0126 18.9184C25.0019 19.1646 24.8635 19.3009 24.6385 19.3026C24.4027 19.3037 24.1669 19.3026 23.9316 19.3026L23.9311 19.302Z" fill="#7B7B7B"/>
<path d="M23.934 20.6421C24.1698 20.6421 24.4056 20.6372 24.6414 20.6438C24.864 20.6498 25.0039 20.7911 25.0121 21.0362C25.0214 21.3006 24.8767 21.4596 24.6448 21.4651C24.164 21.4767 23.6827 21.4772 23.2018 21.464C22.9846 21.4579 22.8408 21.3012 22.8428 21.0555C22.8447 20.7961 22.9904 20.6476 23.2262 20.6427C23.462 20.6377 23.6978 20.6416 23.9336 20.6416L23.934 20.6421Z" fill="#7B7B7B"/>
<path d="M23.9297 22.8086C24.1655 22.8086 24.4008 22.8058 24.6365 22.8097C24.8743 22.8135 25.0156 22.9587 25.0126 23.2231C25.0097 23.4704 24.8733 23.6161 24.6492 23.6183C24.1689 23.6233 23.688 23.6233 23.2077 23.6183C22.9826 23.6161 22.8462 23.4665 22.8443 23.222C22.8423 22.9598 22.986 22.8135 23.2233 22.8097C23.4591 22.8058 23.6944 22.8091 23.9301 22.8091L23.9297 22.8086Z" fill="#7B7B7B"/>
<path d="M8.68226 21.156C9.13581 21.156 9.58985 21.1532 10.0434 21.1571C10.3167 21.1593 10.4994 21.3287 10.4809 21.5755C10.4599 21.8581 10.3006 21.9839 10.0575 21.9839C9.13094 21.9839 8.20484 21.9856 7.27825 21.9834C7.04002 21.9834 6.87293 21.8702 6.85929 21.576C6.84711 21.3144 7.00836 21.1598 7.29238 21.1571C7.75567 21.1532 8.21897 21.156 8.68177 21.156H8.68226Z" fill="#7B7B7B"/>
<path d="M8.65849 20.3281C8.20494 20.3281 7.75139 20.3309 7.29783 20.327C7.00651 20.3248 6.85744 20.1807 6.8589 19.9169C6.86036 19.6564 7.01089 19.5079 7.30368 19.5062C8.21078 19.5018 9.11788 19.5018 10.025 19.5062C10.327 19.5079 10.4946 19.6751 10.4829 19.9395C10.4717 20.1879 10.3105 20.3259 10.0196 20.3276C9.56608 20.3298 9.11253 20.3281 8.65898 20.3281H8.65849Z" fill="#7B7B7B"/>
<path d="M8.69063 22.8074C9.1437 22.8074 9.59725 22.8101 10.0503 22.8063C10.2924 22.8041 10.4571 22.9117 10.48 23.1998C10.5 23.4521 10.3295 23.6193 10.0484 23.6204C9.12275 23.6248 8.19713 23.6254 7.272 23.6204C6.99968 23.6188 6.8584 23.4686 6.85889 23.2136C6.85889 22.9592 7.00017 22.8135 7.27395 22.8096C7.74602 22.803 8.21808 22.8079 8.69063 22.8079V22.8074Z" fill="#7B7B7B"/>
</svg>
