<svg xmlns="http://www.w3.org/2000/svg" width="28" height="28" viewBox="0.75 1.25 28 28" fill="none">
<path d="M26.2812 26.198C25.9657 24.2805 25.6588 22.3614 25.3484 20.4428C24.8147 17.1448 24.5602 15.4928 24.5526 15.3846C24.5526 15.3846 24.4866 14.4402 24.0214 13.917C23.9055 13.7862 23.8405 13.7442 23.8405 13.7442C23.7125 13.6614 23.6152 13.6647 23.518 13.5494C23.4923 13.519 23.4661 13.4876 23.457 13.439C23.4368 13.3314 23.5195 13.232 23.5487 13.19C23.7044 12.9682 23.8602 12.7424 23.9614 12.4808C24.2931 11.9261 24.5909 11.3515 24.8278 10.7399C25.1659 9.86561 25.7918 8.10983 25.244 6.00798C25.2183 5.90973 24.5884 3.61635 22.7081 2.3336C22.2339 2.01015 21.7969 1.83076 21.7012 1.79213C20.6166 1.35553 19.6384 1.39748 19.1798 1.42176C19.1567 1.42287 19.0619 1.42783 18.9813 1.43556C17.6891 1.55147 15.519 2.62006 14.4884 4.90848C14.3982 5.10939 14.0444 5.93954 13.9396 7.0843C13.7169 9.52064 15.1219 12.0111 15.322 12.3577C15.4933 12.6442 15.6647 12.9306 15.8355 13.2171C15.7065 13.259 15.6012 13.2811 15.5352 13.2927C15.1819 13.3556 14.9939 13.3004 14.4955 13.3049C14.4038 13.3054 14.3115 13.3065 14.2198 13.3065C14.0575 13.3065 13.9381 13.3032 13.9134 13.3026C13.5485 13.2949 12.527 13.3214 12.3259 13.3264C11.9787 13.3347 11.4878 13.3402 10.8841 13.3264C10.3111 13.301 9.73806 13.3015 9.16505 13.3264C8.52602 13.3004 7.26914 13.2734 6.08583 13.4329C5.81419 13.4693 5.42463 13.5323 5.10159 13.8535C4.98164 13.9727 4.75637 14.1554 4.62484 14.8757C4.46054 15.7765 4.32548 16.6834 4.18387 17.5886C4.04578 18.4734 3.91576 19.3598 3.78221 20.2457C3.77011 20.2728 3.75146 20.2982 3.74693 20.3269C3.42994 22.3045 3.10941 24.2816 2.79948 26.261C2.65333 27.1943 3.04188 28.0101 3.78624 28.3849C4.26248 28.6669 4.77804 28.5687 5.28352 28.5703C5.81974 28.5703 6.35545 28.5703 6.89167 28.5703C7.50146 28.5703 8.11177 28.5703 8.72156 28.5703C9.27592 28.5703 9.83079 28.5703 10.3852 28.5703C10.9582 28.5703 11.5312 28.5703 12.1042 28.5703C12.6772 28.5703 13.2502 28.5703 13.8232 28.5703C14.4516 28.5703 15.0801 28.5703 15.7085 28.5703C16.3002 28.5703 16.8918 28.5703 17.483 28.5703C18.1114 28.5703 18.7399 28.5703 19.3683 28.5703C19.9413 28.5703 20.5143 28.5703 21.0873 28.5703C21.6603 28.5703 22.2334 28.5703 22.8064 28.5703C23.846 28.5703 23.8985 28.6261 24.2623 28.5781C24.9306 28.4898 25.4587 28.4202 25.8402 27.9781C26.2837 27.4642 26.3664 26.7268 26.2797 26.1986L26.2812 26.198ZM16.347 12.4951C15.9766 11.9349 15.4016 11.0485 15.0856 9.73148C14.9611 9.21209 14.7439 8.06788 14.9677 6.68137C15.0423 6.21827 15.1451 5.61443 15.5039 4.92449C15.8763 4.2086 16.3435 3.74937 16.6509 3.49216C16.9291 3.27579 17.3615 2.98159 17.934 2.75198C18.312 2.60019 20.1162 1.87713 21.7853 2.82318C22.4899 3.22225 22.955 3.79408 23.1995 4.10097C23.4076 4.36259 23.7558 4.80305 24.0365 5.46044C24.4881 6.51799 24.4926 7.46515 24.4901 7.89567C24.4795 9.99698 23.4847 11.5844 22.9742 12.4002C22.8008 12.6767 22.6476 12.8909 22.3508 13.3054C21.5298 14.4518 21.3504 14.5308 20.5834 15.5022C20.3551 15.7914 20.0658 16.0161 19.8058 16.2716C19.7463 16.3301 19.6848 16.419 19.5941 16.3395C19.4752 16.2352 19.3643 16.1193 19.2499 16.0089C18.822 15.5149 18.2102 14.8012 17.4785 13.9247C16.6605 12.9455 16.5068 12.7369 16.347 12.4951ZM4.93225 19.0574C5.10259 18.2879 5.12678 17.4865 5.28705 16.7148C5.5743 15.3316 5.39993 14.7891 5.86106 14.4253C6.0188 14.3006 6.1841 14.2504 6.30304 14.2272C6.70671 14.1703 7.31752 14.1091 8.06641 14.1311C8.50083 14.1438 8.52804 14.1714 9.02344 14.1946C9.44626 14.2145 9.70278 14.2073 11.2424 14.1471C11.822 14.1245 12.403 14.1946 12.9826 14.1632C13.3056 14.1455 13.7441 14.1102 13.9315 14.3922C14.0233 14.5296 14.0197 14.6897 14.0177 14.7742C14.0046 15.3488 14.0137 15.9239 14.0137 16.4985C14.0137 17.3054 14.0157 18.1119 14.0127 18.9188C14.0127 18.9762 14.0419 19.1258 13.9638 19.2445C13.8363 19.4382 13.5274 19.4211 13.3621 19.399C13.3611 19.4018 13.3606 19.4051 13.359 19.4079C12.7558 19.4079 12.1526 19.4079 11.5498 19.4079C10.9582 19.4079 10.3665 19.4079 9.77535 19.4079C9.1837 19.4079 8.59204 19.4079 8.00089 19.4079C7.52011 19.4079 7.03983 19.4079 6.55905 19.4079C6.12312 19.4079 5.68719 19.4079 5.25126 19.4079C5.15249 19.3974 5.00079 19.3642 4.94485 19.245C4.90806 19.1672 4.92721 19.0833 4.93276 19.0568L4.93225 19.0574ZM13.8076 27.5934C13.8076 27.5934 13.8066 27.5978 13.8056 27.6006C13.7365 27.8252 13.0103 27.7468 12.8143 27.727C11.5095 27.5978 10.1926 27.7225 8.88434 27.6475C8.1793 27.6072 7.15121 27.5746 5.88273 27.6315C5.36062 27.5995 4.83852 27.568 4.31641 27.536C4.17076 27.5167 3.90517 27.4548 3.7943 27.2341C3.74189 27.1292 3.74441 27.0293 3.76658 26.6876C3.79279 26.2891 3.80589 26.0898 3.81597 26.017C3.92936 25.1913 4.00395 24.36 4.11331 23.5337C4.19243 22.9332 4.30179 22.3382 4.38898 21.7388C4.48373 21.0853 4.52354 20.7684 4.76443 20.5278C5.08294 20.2093 5.54911 20.2286 5.79555 20.2617C7.1759 20.2264 8.28412 20.2413 9.0436 20.2617C10.0369 20.2882 11.2303 20.3451 13.2149 20.3672C13.3056 20.3683 13.3797 20.3688 13.4281 20.3694C13.5314 20.3627 13.7229 20.3672 13.9159 20.4836C13.9159 20.4836 14.0414 20.5598 14.1407 20.6829C14.4526 21.0703 14.309 22.3934 14.2722 23.404C14.2566 23.8268 14.2813 23.6049 14.2722 25.1753C14.2692 25.7156 14.2637 26.1666 14.2591 26.4856C14.2677 26.6241 14.2737 27.0061 14.0409 27.3439C13.9643 27.4548 13.8801 27.5349 13.8071 27.5917L13.8076 27.5934ZM15.0685 14.8658C15.0629 14.7863 15.0468 14.5606 15.1728 14.3961C15.2192 14.3354 15.2852 14.2873 15.3774 14.2537C15.7151 14.2553 16.0527 14.2564 16.3904 14.2581C18.0378 16.021 19.2564 17.2889 19.4394 17.4296C19.5679 17.5284 19.6924 17.5246 19.6924 17.5246C19.7992 17.5213 19.8808 17.4628 19.9242 17.428C20.6302 16.8606 21.4663 15.7506 21.4663 15.7506C21.7052 15.4338 22.0832 15.001 22.6632 14.5727C22.7106 14.5434 22.9676 14.39 23.1798 14.5054C23.3144 14.5788 23.3905 14.7377 23.4872 14.9398C23.5265 15.0214 23.5532 15.0921 23.5704 15.1401C23.6067 15.3167 23.6515 15.5458 23.6999 15.8141C23.7926 16.3285 23.8405 16.674 23.8738 16.8942C24.1121 18.4734 24.3933 18.9828 24.1328 19.2649C24.0643 19.3389 23.9368 19.4211 23.6782 19.4079C23.3627 19.4034 22.8421 19.399 22.1981 19.4079C22.0807 19.4095 20.978 19.4288 18.7691 19.5149C18.2087 19.537 17.6473 19.5276 17.0869 19.5469C15.9731 19.5845 15.4082 19.6358 15.1617 19.2616C15.0569 19.1021 15.0574 18.958 15.073 18.5462C15.1053 17.6913 15.1058 15.4205 15.0685 14.8658ZM24.3717 27.648C23.206 27.7772 21.9602 27.7292 21.1957 27.68C19.968 27.6745 18.7404 27.6696 17.5122 27.664C16.6177 27.611 15.9726 27.5857 15.5689 27.6006C15.4787 27.6039 15.2645 27.6144 15.1446 27.4659C15.0181 27.3097 15.0745 27.0607 15.075 26.9802C15.0761 24.9815 15.0761 22.9834 15.075 20.9848C15.075 20.9053 15.0448 20.7055 15.1456 20.5261C15.3164 20.2225 15.7226 20.1878 16.3753 20.1662C17.4946 20.1293 17.9416 20.1767 18.8548 20.1502C19.2227 20.1397 19.3426 20.1265 19.8118 20.1182C20.3959 20.1083 20.4987 20.1237 21.0878 20.1182C21.5454 20.1138 21.9254 20.1105 22.4365 20.0862C22.8956 20.0647 23.2352 20.0371 23.6979 20.1497C24.0315 20.2308 24.1771 20.3235 24.2835 20.4361C24.4629 20.626 24.5153 20.8545 24.5823 21.2293C24.7139 21.9656 24.7774 22.5684 24.8 22.7858C24.8696 23.4576 24.8832 23.664 24.9517 24.0846C24.988 24.3065 24.9905 24.2877 25.0651 24.7083C25.1805 25.3613 25.239 25.6946 25.2682 25.9999C25.3327 26.6777 25.365 27.0166 25.1977 27.2655C24.9931 27.5696 24.6171 27.6193 24.3712 27.6469L24.3717 27.648Z"/>
<path d="M18.7032 10.9558C19.1029 11.0838 19.4214 11.1341 19.5378 11.1418C19.6612 11.1495 20.4061 11.1887 21.0739 10.7918C21.4458 10.5711 21.7991 10.2117 21.8444 10.1654C21.8585 10.151 21.8686 10.14 21.8691 10.1394C23.2555 8.7783 23.0912 6.20231 21.6917 5.07411C21.6005 4.97642 21.4559 4.83567 21.2583 4.70044C20.3114 4.0541 18.9648 4.10046 17.9856 4.78047C17.7618 4.93557 17.4116 5.22535 17.093 5.73425C16.3759 6.78297 16.3724 8.59947 17.086 9.63383C17.4614 10.3149 18.0143 10.7355 18.7032 10.9563V10.9558ZM17.3914 7.44422C17.3964 7.22233 17.4357 6.79512 17.6812 6.36404C17.8253 6.11124 17.9836 5.95724 18.0728 5.87169C18.5107 5.4522 18.9814 5.33022 19.2329 5.2684C19.4113 5.2248 19.6693 5.17954 19.9868 5.18892C20.1476 5.211 21.1258 5.36168 21.6398 6.2691C21.9377 6.79456 21.9422 7.32996 21.9442 7.58718C21.9467 7.87916 21.9442 8.53213 21.538 9.1597C21.0643 9.89215 20.3577 10.1002 20.0735 10.1604C19.8815 10.2007 19.2394 10.3254 18.5651 9.93796C18.0788 9.65812 17.8132 9.24802 17.6953 9.03275C17.3188 8.34501 17.3667 7.66611 17.3909 7.44477L17.3914 7.44422Z"/>
</svg>
