<svg xmlns="http://www.w3.org/2000/svg" width="28" height="28" viewBox="5 1 28 33" fill="none">
<path d="M19.6421 12.5898C19.1103 10.5182 18.5741 8.44791 18.0315 6.3789C17.8796 5.7987 17.4391 5.68278 17.0044 6.0962C16.5812 6.49867 16.1624 6.90629 15.6983 7.35319C15.6926 7.24887 15.6836 7.2083 15.6887 7.17031C15.7819 6.49545 15.6434 5.92491 14.9968 5.57653C14.8742 5.51021 14.8812 5.41555 14.9151 5.28869C15.0542 4.77224 14.9042 4.32727 14.5225 3.97245C13.8082 3.3079 13.0906 2.6472 12.3591 2.00196C11.7648 1.47779 11.0537 1.53317 10.5391 2.1153C10.0419 2.67747 10.0917 3.41866 10.6687 3.94863C11.3345 4.55974 12.0144 5.15475 12.6687 5.77745C13.0268 6.1181 13.4085 6.3042 13.9103 6.22628C14.1822 6.18378 14.5838 6.58625 14.5844 6.8683C14.5857 7.30168 14.5767 7.73505 14.5882 8.16843C14.5927 8.34681 14.5423 8.47302 14.414 8.59988C13.7999 9.20519 13.1953 9.8221 12.5883 10.4345C12.1306 10.8962 12.2289 11.3174 12.8398 11.5054C13.4054 11.6793 13.9709 11.8531 14.5372 12.0251C15.9524 12.4546 17.3683 12.8847 18.7848 13.3104C19.3542 13.4817 19.7787 13.1269 19.6408 12.5885L19.6421 12.5898ZM13.775 5.08005C13.6607 5.20047 13.5611 5.21206 13.436 5.09486C12.7408 4.4406 12.0418 3.79021 11.3447 3.13854C11.2828 3.08058 11.2196 3.01554 11.2898 2.92797C11.3396 2.8655 11.4054 2.81592 11.4699 2.75539C11.5394 2.80561 11.6014 2.84168 11.6531 2.88868C12.3438 3.51718 13.0326 4.14761 13.7239 4.7761C13.8241 4.8669 13.9014 4.94739 13.775 5.08005ZM13.9307 10.6412C14.3297 10.2374 14.6987 9.86138 15.0715 9.48918C15.1806 9.38035 15.233 9.51107 15.2904 9.56452C15.6051 9.85945 15.9122 10.1627 16.2262 10.4583C16.539 10.7526 16.8506 10.7661 17.0829 10.5034C17.307 10.249 17.2706 9.94574 16.9718 9.66562C16.6648 9.37713 16.3514 9.09572 16.0411 8.8111C15.9747 8.74992 15.8943 8.70549 16.0047 8.5973C16.3692 8.23991 16.7242 7.87157 17.1225 7.46782C17.533 8.99076 17.9262 10.4493 18.336 11.9722C16.8589 11.526 15.4232 11.092 13.9301 10.6406L13.9307 10.6412Z" fill="#7B7B7B"/>
<path d="M30.3532 31.8099C30.3245 30.9335 30.3475 30.0552 30.3462 29.1781C30.3449 28.2386 29.8604 27.7498 28.9259 27.7479C28.0871 27.746 27.2476 27.7408 26.4088 27.7524C26.2071 27.755 26.1535 27.697 26.1554 27.4955C26.1656 26.5353 26.1669 25.5759 26.1548 24.6157C26.1522 24.4052 26.2199 24.3633 26.4127 24.3652C27.2719 24.3749 28.1317 24.3736 28.991 24.3685C29.8413 24.3633 30.3417 23.8565 30.3456 22.9955C30.35 22.0354 30.35 21.0759 30.3456 20.1158C30.3417 19.2555 29.84 18.7526 28.9878 18.7493C28.1286 18.7461 27.2687 18.7423 26.4095 18.7532C26.2122 18.7558 26.1528 18.7062 26.1554 18.5008C26.1669 17.5303 26.1675 16.5605 26.158 15.5901C26.1497 14.7704 25.6709 14.2584 24.8685 14.2539C22.4644 14.2417 20.0597 14.2275 17.6557 14.2668C17.1501 14.2752 16.6522 14.288 16.1441 14.2752C13.7515 14.2166 11.3564 14.243 8.96258 14.2526C8.14102 14.2558 7.65396 14.7684 7.64885 15.5978C7.6431 16.5683 7.64374 17.5381 7.64885 18.5085C7.65332 19.354 8.15315 19.8576 8.98493 19.8602C9.83394 19.8627 10.6836 19.8679 11.5326 19.8556C11.7586 19.8524 11.846 19.8917 11.8409 20.1499C11.8231 21.0888 11.8269 22.0283 11.839 22.9679C11.8422 23.1913 11.7975 23.2679 11.5569 23.2634C10.7078 23.2467 9.85883 23.2551 9.00918 23.2576C8.13591 23.2602 7.65076 23.7541 7.64821 24.6434C7.64566 25.5932 7.64438 26.5424 7.64821 27.4923C7.65204 28.3597 8.13974 28.8523 8.99897 28.8568C9.84798 28.8613 10.6976 28.8658 11.5466 28.8523C11.7726 28.8484 11.8435 28.9019 11.839 29.1401C11.8243 30.0275 11.8562 30.9161 11.8262 31.8029C11.8001 32.5634 12.0733 33.0946 12.7953 33.3638H29.3746C30.1017 33.103 30.3788 32.5717 30.3539 31.8106L30.3532 31.8099ZM28.9527 19.9155C29.1857 19.9149 29.2508 19.9954 29.2482 20.2201C29.2387 21.1481 29.2367 22.0766 29.2495 23.0046C29.2533 23.2615 29.1499 23.3162 28.9214 23.3149C27.7558 23.3072 26.5901 23.3111 25.4251 23.3111C24.2901 23.3111 23.1551 23.3034 22.0208 23.3169C21.738 23.3201 21.625 23.257 21.632 22.9421C21.6531 22.0348 21.6454 21.1268 21.6352 20.2195C21.6327 19.9941 21.6952 19.9142 21.9289 19.9149C24.2703 19.9226 26.6112 19.9226 28.9527 19.9149V19.9155ZM17.86 15.3016C20.017 15.3171 22.1746 15.31 24.3323 15.31C24.8174 15.31 25.06 15.5538 25.06 16.0415C25.06 16.8252 25.0542 17.6095 25.0638 18.3932C25.0664 18.6186 24.9987 18.6978 24.7663 18.6952C23.6109 18.6843 22.4555 18.6901 21.3001 18.6901C20.1447 18.6901 18.9688 18.6843 17.8032 18.6952C17.5708 18.6972 17.5076 18.6238 17.5102 18.3952C17.5216 17.4878 17.5287 16.5792 17.507 15.6725C17.4999 15.3821 17.5574 15.2997 17.86 15.3023V15.3016ZM20.1638 19.9155C20.3955 19.9149 20.4894 19.9619 20.4855 20.2214C20.4702 21.15 20.4708 22.0786 20.4855 23.0071C20.4894 23.266 20.3923 23.3175 20.1625 23.3156C19.0173 23.3066 17.8715 23.3117 16.7263 23.3117C15.581 23.3117 14.4352 23.3053 13.29 23.3162C13.0327 23.3188 12.9249 23.2576 12.93 22.973C12.9459 22.065 12.9434 21.1571 12.9312 20.2491C12.928 19.9954 13.0027 19.9136 13.2613 19.9142C15.5625 19.9239 17.8638 19.9226 20.1651 19.9155H20.1638ZM9.05131 18.7526C8.82917 18.7545 8.74299 18.6965 8.74618 18.4589C8.75703 17.5207 8.75576 16.5818 8.74682 15.6429C8.7449 15.4253 8.82342 15.3551 9.03344 15.3551C11.3851 15.3596 13.7362 15.3589 16.0879 15.3557C16.28 15.3557 16.3611 15.4169 16.3592 15.6242C16.3509 16.5728 16.3503 17.522 16.3592 18.4711C16.3618 18.6914 16.2858 18.7532 16.0745 18.7519C14.8986 18.7442 13.7228 18.748 12.5476 18.748C11.3819 18.748 10.2163 18.7429 9.05131 18.7526ZM12.5533 27.8587C11.3883 27.8587 10.2233 27.8522 9.05834 27.8638C8.81257 27.8664 8.74235 27.7885 8.74554 27.5451C8.75767 26.6274 8.75767 25.7098 8.74554 24.7922C8.74235 24.5494 8.81768 24.4695 9.05961 24.4702C11.3896 24.4773 13.7202 24.4773 16.0502 24.4702C16.2935 24.4695 16.3637 24.5507 16.3605 24.7935C16.3471 25.7111 16.3471 26.6287 16.3605 27.5463C16.3643 27.7917 16.2928 27.8664 16.0483 27.8638C14.8833 27.8522 13.7183 27.8587 12.5533 27.8587ZM20.2232 32.4268C19.0467 32.4211 17.8708 32.4236 16.6943 32.4236C15.5179 32.4236 14.4237 32.4172 13.2881 32.4288C13.0289 32.4314 12.9242 32.367 12.9287 32.0843C12.944 31.1763 12.9415 30.2683 12.93 29.3604C12.9268 29.1099 12.9963 29.021 13.2587 29.0223C15.56 29.0319 17.8613 29.0326 20.1632 29.0223C20.4306 29.021 20.4874 29.115 20.4843 29.3616C20.4728 30.3005 20.4708 31.24 20.4862 32.1783C20.49 32.4024 20.407 32.4281 20.2232 32.4268ZM17.8293 27.8059C17.6008 27.8065 17.5051 27.7608 17.5095 27.5013C17.5255 26.5733 17.5229 25.6448 17.5108 24.7168C17.5076 24.485 17.5778 24.4155 17.8064 24.4174C18.972 24.427 20.1376 24.4219 21.3026 24.4219C22.4478 24.4219 23.593 24.429 24.7376 24.4167C24.9981 24.4142 25.0689 24.5024 25.0651 24.7555C25.0523 25.6628 25.051 26.5708 25.0657 27.4781C25.0702 27.7434 24.9783 27.8071 24.73 27.8065C22.4293 27.7988 20.1293 27.7994 17.8287 27.8065L17.8293 27.8059ZM28.8786 32.3721C27.7232 32.3586 26.5678 32.3663 25.4124 32.3663C24.2569 32.3663 23.1219 32.3579 21.9767 32.3721C21.7003 32.3753 21.6301 32.2826 21.6346 32.0166C21.6493 31.1196 21.6486 30.222 21.6346 29.3243C21.6307 29.0635 21.6907 28.963 21.9723 28.9643C24.2831 28.9753 26.594 28.9746 28.9048 28.9643C29.1793 28.963 29.254 29.0525 29.2495 29.3198C29.2355 30.2168 29.2323 31.1151 29.2508 32.0121C29.2572 32.3109 29.1512 32.3747 28.878 32.3715L28.8786 32.3721Z" fill="#7B7B7B"/>
</svg>
