<svg width="40" height="40" viewBox="0 0 40 40" fill="none" xmlns="http://www.w3.org/2000/svg">
<path d="M20.462 14.1044C19.8364 11.8172 19.2055 9.53137 18.5671 7.24698C18.3884 6.60638 17.8702 6.4784 17.3587 6.93485C16.8608 7.37922 16.3681 7.82927 15.8221 8.3227C15.8154 8.20752 15.8049 8.16272 15.8109 8.12078C15.9205 7.37566 15.7576 6.74573 14.9968 6.36109C14.8526 6.28786 14.8608 6.18334 14.9006 6.04328C15.0644 5.47307 14.8879 4.98178 14.4388 4.59003C13.5984 3.85629 12.7542 3.12682 11.8935 2.41441C11.1943 1.83567 10.3577 1.89681 9.75238 2.53954C9.16733 3.16023 9.22591 3.97858 9.90484 4.56372C10.6882 5.23844 11.488 5.89539 12.2578 6.58292C12.6791 6.95903 13.1282 7.1645 13.7185 7.07847C14.0385 7.03155 14.5109 7.47591 14.5116 7.78732C14.5131 8.26582 14.5026 8.74431 14.5161 9.2228C14.5214 9.41975 14.462 9.5591 14.3111 9.69916C13.5886 10.3675 12.8774 11.0486 12.1632 11.7248C11.6247 12.2345 11.7403 12.6995 12.4591 12.9071C13.1245 13.0991 13.7899 13.2911 14.456 13.4809C16.121 13.9551 17.7868 14.4301 19.4533 14.9C20.1232 15.0891 20.6227 14.6974 20.4605 14.103L20.462 14.1044ZM13.5593 5.81292C13.4249 5.94587 13.3077 5.95867 13.1605 5.82927C12.3427 5.10691 11.5203 4.38882 10.7002 3.6693C10.6273 3.60531 10.553 3.5335 10.6356 3.43681C10.6942 3.36784 10.7715 3.3131 10.8474 3.24626C10.9292 3.30172 11.0021 3.34154 11.0629 3.39344C11.8755 4.08736 12.6859 4.78341 13.4992 5.47733C13.6171 5.57758 13.708 5.66646 13.5593 5.81292ZM13.7426 11.953C14.212 11.5072 14.646 11.092 15.0846 10.681C15.2131 10.5609 15.2746 10.7052 15.3422 10.7642C15.7125 11.0898 16.0737 11.4247 16.4432 11.7511C16.8112 12.076 17.1777 12.0909 17.4511 11.8008C17.7147 11.52 17.6719 11.1851 17.3204 10.8758C16.9592 10.5573 16.5904 10.2466 16.2254 9.93237C16.1473 9.86482 16.0527 9.81576 16.1826 9.69632C16.6115 9.30172 17.029 8.89504 17.4977 8.44925C17.9806 10.1307 18.4432 11.7411 18.9254 13.4226C17.1875 12.9299 15.4985 12.4507 13.7418 11.9523L13.7426 11.953Z" fill="#333333"/>
<path d="M33.0634 35.3252C33.0296 34.3575 33.0566 33.3878 33.0551 32.4194C33.0536 31.3821 32.4836 30.8424 31.3841 30.8403C30.3972 30.8382 29.4096 30.8325 28.4228 30.8453C28.1855 30.8481 28.1224 30.7841 28.1246 30.5616C28.1367 29.5015 28.1382 28.4421 28.1239 27.3821C28.1209 27.1496 28.2005 27.1034 28.4273 27.1055C29.4382 27.1162 30.4498 27.1147 31.4607 27.1091C32.461 27.1034 33.0498 26.5438 33.0544 25.5932C33.0596 24.5332 33.0596 23.4738 33.0544 22.4137C33.0498 21.4638 32.4595 20.9086 31.4569 20.905C30.4461 20.9014 29.4344 20.8972 28.4235 20.9093C28.1915 20.9121 28.1216 20.8574 28.1246 20.6306C28.1382 19.5591 28.1389 18.4884 28.1276 17.4169C28.1179 16.5118 27.5546 15.9466 26.6106 15.9416C23.7822 15.9281 20.9531 15.9125 18.1248 15.9558C17.53 15.9651 16.9442 15.9793 16.3464 15.9651C13.5315 15.9004 10.7137 15.9295 7.89735 15.9402C6.93078 15.9437 6.35775 16.5097 6.35175 17.4254C6.34499 18.4969 6.34574 19.5676 6.35175 20.6391C6.357 21.5726 6.94505 22.1286 7.92364 22.1314C8.9225 22.1343 9.92211 22.14 10.921 22.1265C11.1868 22.1229 11.2897 22.1663 11.2837 22.4514C11.2627 23.488 11.2672 24.5253 11.2815 25.5627C11.2852 25.8094 11.2326 25.894 10.9495 25.889C9.95065 25.8705 8.95179 25.8798 7.95218 25.8826C6.92478 25.8854 6.354 26.4308 6.351 27.4126C6.34799 28.4613 6.34649 29.5093 6.351 30.558C6.3555 31.5157 6.92928 32.0596 7.94016 32.0646C8.93902 32.0696 9.93863 32.0746 10.9375 32.0596C11.2034 32.0554 11.2867 32.1144 11.2815 32.3774C11.2642 33.3572 11.3017 34.3383 11.2664 35.3174C11.2356 36.157 11.5571 36.7436 12.4065 37.0408H31.912C32.7675 36.7528 33.0934 36.1663 33.0641 35.3259L33.0634 35.3252ZM31.4156 22.1926C31.6897 22.1919 31.7663 22.2808 31.7633 22.5289C31.7521 23.5534 31.7498 24.5787 31.7648 25.6032C31.7694 25.8869 31.6477 25.9473 31.3788 25.9459C30.0075 25.9373 28.6361 25.9416 27.2655 25.9416C25.9302 25.9416 24.5948 25.9331 23.2603 25.948C22.9276 25.9516 22.7946 25.8819 22.8029 25.5342C22.8277 24.5324 22.8187 23.53 22.8067 22.5282C22.8036 22.2793 22.8772 22.1912 23.1521 22.1919C25.9069 22.2004 28.6609 22.2004 31.4156 22.1919V22.1926ZM18.3651 17.0984C20.9028 17.1154 23.4413 17.1076 25.9797 17.1076C26.5505 17.1076 26.8359 17.3769 26.8359 17.9153C26.8359 18.7806 26.8291 19.6466 26.8404 20.5118C26.8434 20.7607 26.7638 20.8481 26.4904 20.8453C25.1311 20.8332 23.7717 20.8396 22.4124 20.8396C21.053 20.8396 19.6696 20.8332 18.2983 20.8453C18.0249 20.8474 17.9505 20.7664 17.9535 20.514C17.9671 19.5122 17.9753 18.509 17.9498 17.5079C17.9415 17.1873 18.0091 17.0963 18.3651 17.0991V17.0984ZM21.0755 22.1926C21.3482 22.1919 21.4586 22.2438 21.4541 22.5303C21.436 23.5555 21.4368 24.5808 21.4541 25.606C21.4586 25.8918 21.3444 25.9487 21.074 25.9466C19.7267 25.9366 18.3786 25.9423 17.0313 25.9423C15.684 25.9423 14.3359 25.9352 12.9885 25.9473C12.6859 25.9501 12.5589 25.8826 12.565 25.5683C12.5837 24.5659 12.5807 23.5634 12.5665 22.5609C12.5627 22.2808 12.6506 22.1905 12.9547 22.1912C15.6622 22.2018 18.3696 22.2004 21.077 22.1926H21.0755ZM8.00174 20.9086C7.74039 20.9107 7.639 20.8467 7.64275 20.5843C7.65552 19.5484 7.65402 18.5118 7.64351 17.4752C7.64125 17.2349 7.73363 17.1574 7.98071 17.1574C10.7475 17.1624 13.5135 17.1617 16.2803 17.1581C16.5063 17.1581 16.6017 17.2256 16.5994 17.4546C16.5897 18.5019 16.5889 19.5499 16.5994 20.5979C16.6025 20.841 16.5131 20.9093 16.2645 20.9078C14.8811 20.8993 13.4977 20.9036 12.1151 20.9036C10.7437 20.9036 9.37236 20.8979 8.00174 20.9086V20.9086ZM12.1219 30.9626C10.7512 30.9626 9.38062 30.9555 8.01 30.9683C7.72086 30.9711 7.63825 30.8851 7.642 30.6163C7.65627 29.6032 7.65627 28.59 7.642 27.5769C7.63825 27.3088 7.72687 27.2207 8.01151 27.2214C10.7527 27.2292 13.4947 27.2292 16.236 27.2214C16.5221 27.2207 16.6047 27.3103 16.601 27.5783C16.5852 28.5915 16.5852 29.6046 16.601 30.6178C16.6055 30.8886 16.5213 30.9711 16.2337 30.9683C14.8631 30.9555 13.4925 30.9626 12.1219 30.9626ZM21.1454 36.0063C19.7613 35.9999 18.3779 36.0028 16.9937 36.0028C15.6096 36.0028 14.3223 35.9957 12.9863 36.0084C12.6814 36.0113 12.5582 35.9402 12.5635 35.6281C12.5815 34.6256 12.5785 33.6231 12.565 32.6206C12.5612 32.344 12.6431 32.2459 12.9517 32.2473C15.6592 32.258 18.3666 32.2587 21.0748 32.2473C21.3895 32.2459 21.4563 32.3497 21.4526 32.622C21.439 33.6586 21.4368 34.696 21.4548 35.7319C21.4593 35.9793 21.3617 36.0077 21.1454 36.0063V36.0063ZM18.3291 30.9043C18.0602 30.905 17.9475 30.8545 17.9528 30.568C17.9716 29.5435 17.9686 28.5182 17.9543 27.4937C17.9505 27.2377 18.0332 27.161 18.302 27.1631C19.6734 27.1738 21.0448 27.1681 22.4154 27.1681C23.7627 27.1681 25.11 27.1759 26.4566 27.1624C26.763 27.1595 26.8464 27.2569 26.8419 27.5364C26.8269 28.5381 26.8254 29.5406 26.8426 30.5424C26.8479 30.8353 26.7398 30.9057 26.4476 30.905C23.7409 30.8965 21.035 30.8972 18.3283 30.905L18.3291 30.9043ZM31.3285 35.9459C29.9692 35.931 28.6098 35.9395 27.2505 35.9395C25.8911 35.9395 24.5558 35.9302 23.2084 35.9459C22.8833 35.9494 22.8006 35.8471 22.8059 35.5534C22.8232 34.563 22.8224 33.5719 22.8059 32.5808C22.8014 32.2928 22.872 32.1819 23.2032 32.1834C25.9219 32.1954 28.6406 32.1947 31.3593 32.1834C31.6822 32.1819 31.7701 32.2808 31.7648 32.5758C31.7483 33.5662 31.7446 34.558 31.7663 35.5484C31.7739 35.8783 31.6492 35.9487 31.3278 35.9452L31.3285 35.9459Z" fill="#333333"/>
</svg>
