<svg width="40" height="40" viewBox="0 0 40 40" fill="none" xmlns="http://www.w3.org/2000/svg">
<path d="M18.5644 11.6341C18.9868 11.8992 19.4864 12.0424 19.9999 12.0424L18.5644 11.6341ZM18.5644 11.6341L18.2986 12.0576M18.5644 11.6341L18.2986 12.0576M18.2986 12.0576L18.5644 11.6341C18.1422 11.3691 17.8181 10.9957 17.6281 10.5649M18.2986 12.0576L17.6281 10.5649M17.6281 10.5649C17.4383 10.1344 17.3892 9.6628 17.4855 9.20816M17.6281 10.5649L17.4855 9.20816M17.4855 9.20816C17.5818 8.75323 17.8205 8.33078 18.1768 7.99615M17.4855 9.20816L18.1768 7.99615M18.1768 7.99615C18.5334 7.6612 18.9914 7.42991 19.4944 7.33594M18.1768 7.99615L19.4944 7.33594M19.4944 7.33594C19.9974 7.24195 20.5185 7.29042 20.9907 7.47411M19.4944 7.33594L20.9907 7.47411M20.9907 7.47411C21.4626 7.65773 21.861 7.96676 22.1389 8.35745M20.9907 7.47411L22.1389 8.35745M22.1389 8.35745C22.4165 8.74765 22.5625 9.20285 22.5625 9.6656M22.1389 8.35745L22.5625 9.6656M22.5625 9.6656C22.5617 10.2853 22.2995 10.8862 21.8222 11.3345M22.5625 9.6656L21.8222 11.3345M21.8222 11.3345C21.3439 11.7838 20.6891 12.0416 20 12.0424L21.8222 11.3345Z" stroke="#333333"/>
<path d="M29.7046 13.0799L29.7046 13.08L29.717 13.0764L29.731 13.0724L29.7448 13.0689C29.745 13.0689 29.7453 13.0688 29.7455 13.0687C30.064 12.9904 30.3218 13.0935 30.5239 13.31C30.7401 13.5417 30.8745 13.8923 30.8745 14.2257C30.8745 14.4865 30.7601 14.6866 30.5183 14.877C30.259 15.0811 29.8885 15.2427 29.4583 15.3943L29.4574 15.3946C29.4434 15.3996 29.4291 15.4039 29.4145 15.4075L29.397 15.4119L29.3799 15.4175L24.4974 17.0207L24.4973 17.0206L24.4871 17.0242C24.1443 17.1451 23.884 17.2737 23.6925 17.3963C23.5183 17.5079 23.3541 17.644 23.264 17.8008L23.2576 17.812C23.2569 17.8131 23.2563 17.8142 23.2556 17.8153L23.2532 17.8196L23.2531 17.8199C23.1021 18.0875 22.953 18.6819 23.1813 20.029L23.4968 22.3326L23.4989 22.3475L23.5018 22.3623L25.2862 31.3378L25.2881 31.3473L25.2904 31.3567C25.3039 31.4131 25.3152 31.4699 25.3244 31.527C25.3647 31.7868 25.2858 32.0383 25.0966 32.2314C24.9066 32.4255 24.5738 32.5895 24.0682 32.5895C23.6529 32.5895 23.4032 32.4607 23.2303 32.2791C23.0424 32.0816 22.9009 31.7742 22.8079 31.3478L22.8078 31.347L22.8043 31.3293L22.7908 31.2608C22.7789 31.201 22.7615 31.1135 22.7391 31.0022C22.6942 30.7797 22.6293 30.4621 22.5491 30.0811C22.3887 29.3195 22.1665 28.3025 21.9199 27.2841C21.674 26.2688 21.401 25.24 21.1383 24.4599C21.008 24.073 20.8736 23.7268 20.7384 23.4699C20.6719 23.3435 20.593 23.2146 20.4987 23.1103C20.4194 23.0226 20.2422 22.8548 19.9754 22.8548C19.7296 22.8548 19.558 22.9946 19.4695 23.0844C19.3726 23.1827 19.2935 23.3039 19.2285 23.4204C19.0968 23.6568 18.97 23.973 18.8495 24.3241C18.6061 25.0328 18.3576 25.9752 18.1303 26.9316C17.7869 28.3762 17.4801 29.9051 17.3092 30.7571C17.2544 31.0303 17.2135 31.234 17.1899 31.3429C17.0969 31.7718 16.9551 32.0809 16.7664 32.2791C16.5935 32.4607 16.3438 32.5895 15.9285 32.5895C15.4243 32.5895 15.092 32.4262 14.9019 32.2328C14.7145 32.0422 14.6349 31.7948 14.6715 31.5391L14.6821 31.4844L14.6822 31.4844L14.684 31.4737C14.687 31.4559 14.6904 31.4389 14.694 31.4225L14.6942 31.4226L14.6967 31.4097L16.4571 22.3592L16.4597 22.3455L16.4616 22.3317L16.7777 20.0281C16.8103 19.8364 16.874 19.4557 16.9004 19.0489C16.9255 18.6608 16.925 18.1526 16.7643 17.7644C16.7046 17.6192 16.6088 17.4579 16.4274 17.3038C16.2559 17.1582 16.028 17.0359 15.7277 16.9277L15.7135 16.9226L15.699 16.9184L10.7429 15.4644L10.5177 15.3847C10.0929 15.2344 9.72874 15.0732 9.47477 14.8709C9.23809 14.6823 9.12555 14.4837 9.12555 14.2247C9.12555 13.8911 9.25997 13.5409 9.47613 13.3097C9.67831 13.0935 9.93644 12.9905 10.2556 13.0694L10.2566 13.0696C10.3876 13.1017 10.5164 13.1407 10.6424 13.1865L10.6629 13.1939L10.6841 13.1996C12.1147 13.5816 16.6679 14.7303 19.9765 14.7303C23.5341 14.7303 28.5368 13.4022 29.5462 13.1241L29.5462 13.1241L29.5531 13.1221C29.6052 13.1069 29.6554 13.0928 29.7046 13.0799Z" stroke="#333333"/>
</svg>
